<?xml version="1.0" encoding="utf-8"?>
<!-- Generator: Adobe Illustrator 23.1.0, SVG Export Plug-In . SVG Version: 6.00 Build 0)  -->
<svg version="1.1" id="Слой_1" xmlns="http://www.w3.org/2000/svg" xmlns:xlink="http://www.w3.org/1999/xlink" x="0px" y="0px"
	 viewBox="0 0 740 400.7" style="enable-background:new 0 0 740 400.7;" xml:space="preserve">
<style type="text/css">
	.st0{fill:#06383B;}
	.st1{fill:#FFFFFF;}
	.st2{clip-path:url(#SVGID_2_);}
	.st3{fill:url(#SVGID_3_);}
	.st4{fill:url(#SVGID_4_);}
	.st5{clip-path:url(#SVGID_6_);}
	.st6{fill:url(#SVGID_7_);}
	.st7{fill:url(#SVGID_8_);}
	.st8{clip-path:url(#SVGID_10_);}
	.st9{fill:url(#SVGID_11_);}
	.st10{fill:url(#SVGID_12_);}
	.st11{clip-path:url(#SVGID_14_);}
	.st12{fill:url(#SVGID_15_);}
	.st13{fill:url(#SVGID_16_);}
	.st14{clip-path:url(#SVGID_18_);}
	.st15{fill:url(#SVGID_19_);}
	.st16{clip-path:url(#SVGID_21_);}
	.st17{fill:url(#SVGID_22_);}
	.st18{fill:url(#SVGID_23_);}
	.st19{clip-path:url(#SVGID_25_);}
	.st20{fill:url(#SVGID_26_);}
	.st21{clip-path:url(#SVGID_28_);}
	.st22{fill:url(#SVGID_29_);}
	.st23{clip-path:url(#SVGID_31_);}
	.st24{fill:url(#SVGID_32_);}
	.st25{fill:none;}
</style>
<title>lg</title>
<g>
	<g id="Слой_1-2">
		<path d="M650.1,58.1v161c0.1,3.1-0.1,6.1-0.4,9.2c-0.4,1.8-1,3.5-2,5.1c-0.9,1.8-5.7,3.8-16,3.8c-6.8,0-15.2-1-16.7-5.8l-0.2-0.4
			c-0.5-1.3-1.3-4.5-1.3-12.2v-161c-0.1-3,0.1-6,0.4-9.1c0.4-1.8,1-3.6,2-5.2c0.9-1.8,5.7-3.8,16-3.8c5.5,0,15.1,0.7,17,5.6
			C649.6,47.2,650.1,50.9,650.1,58.1z"/>
		<path d="M580,176.9c0,11.3-2.3,21.3-6.7,29.7c-3.9,7.9-9.9,14.6-17.2,19.4c-14.3,9.4-29.8,14.1-46.1,14.1c-8,0-16.1-1-23.8-3.1
			c-7.3-2-13.3-4.5-17.6-7.3l-0.2-0.1c-9.3-5.6-15.8-10.9-19.2-15.9l-3-3.6c-4.9-6-5.9-9.8-5.9-12c0-0.4,0.3-4.6,10.2-14.2
			c3.4-3.3,6.8-4.9,10.3-4.9c0.8,0,5.6,0.6,17.1,12.1c3.8,4.3,8.3,7.9,13.3,10.8c6.2,3.7,12.1,5.5,17.7,5.5
			c29.9,0,34.3-18.4,34.3-29.4c0-4.9-1.9-12-10.9-17.5c-6.5-3.7-13.5-6.3-20.9-7.5c-7.7-1.5-15.3-3.6-22.6-6.2
			c-7.8-2.7-15.4-6.1-22.6-10.1c-6.1-3.4-11.3-8.9-15.5-16.4s-6.4-17.1-6.4-28.1c0-15.1,5.5-27.9,16.8-39.2s26.5-16.8,46.5-16.8
			c10-0.1,19.9,1.3,29.5,4.1c10.7,3.4,15.3,6.1,17.3,7.7l7.2,5.5c6.3,6,6.4,8.5,6.4,8.6c0,0.8-0.4,4.1-5.7,11.8
			c-3.5,5.1-8.8,11.2-14.2,11.2c-1.5,0-4.8-0.6-10.9-4.5c-0.9-0.7-1.7-1.4-2.5-2.2c-1.6-1.6-3.4-3-5.2-4.4l-0.4-0.3
			c-5.2-3.2-11.8-4.9-19.4-4.9c-7.8,0-14.5,2-20,5.9c-6,4.2-9.5,11.1-9.3,18.4c0,7.8,3.7,14.4,10.7,19c6.5,4.1,13.7,6.8,21.3,7.8
			c7.8,1.3,15.6,3,23.2,5.2c7.8,2.1,15.5,4.9,22.9,8.4c5.9,2.8,11,7.9,15.2,15.1C577.9,156.3,580,165.7,580,176.9z"/>
		<path d="M196.7,66c-19.8-19.4-42.5-28.9-69.3-28.9c-12.3,0-24.6,2.6-35.9,7.5c-11.6,4.9-22.1,12-31.1,20.8
			c-8.9,8.7-16.1,19.7-21.5,32.7c-5.5,13.4-8.2,27.8-8.1,42.2c0,27.6,9.4,50.8,28.8,70.8s42.1,29.6,69.6,29.6s50-9.8,68.8-30
			s28.1-44.2,28.1-73.2S216.4,85.4,196.7,66z M170.7,186.6c-12.4,11.7-26.6,17.7-42.2,17.7s-29.9-6.1-42.3-18.2s-18.9-28-18.9-47.2
			s6.3-35,18.7-47.2s26.6-18.2,42.2-18.2s29.9,6.1,42.3,18s19,28,19,47.6S183.2,174.7,170.7,186.6L170.7,186.6z"/>
		<path class="st0" d="M677.6,58.1v161c0.1,4.2-0.1,8.5-0.6,12.7c-0.8,5.1-2.5,10-5,14.5c-6.5,12.2-20,18.4-40.3,18.4
			c-29.2,0-39.1-14.4-42.5-23.8c0-0.1-0.1-0.3-0.2-0.4c-0.7-2-1.2-4-1.6-6c-4.7,5.6-10.2,10.6-16.4,14.6
			c-18.9,12.3-39.4,18.6-61,18.6c-10.5,0.1-20.9-1.3-31-4c-10.2-2.8-18.4-6.3-25.2-10.7c-9.4-5.7-16.8-11.5-22.3-17.4
			c-4.5,8.6-11.5,14.7-14.5,17.2c-11.7,10.1-21.9,14.9-32,14.9c-16.5,0-28.8-14.2-33-19.1L323.6,216v3.2c0.1,4.3-0.1,8.6-0.6,12.9
			c0,0.1,0,0.3-0.1,0.4c-0.8,4.8-2.5,9.5-4.9,13.8c-6.5,12.3-20,18.5-40.3,18.5c-30.1,0-39.7-15.3-42.8-24.7l0,0
			c-1.9-5.4-2.8-12.1-2.8-21.1v-7.5c-4.2,6.5-9,12.5-14.3,18.2c-23.9,25.7-53.8,38.7-88.8,38.7s-64.9-12.8-89.3-38
			c-24.2-25-36.5-55.2-36.5-89.8c-0.1-18.1,3.3-36,10.2-52.7c6.8-16.5,16.2-30.5,27.7-41.9C52.7,34.7,66,25.8,80.7,19.5
			c14.7-6.4,30.6-9.7,46.7-9.8c33.9,0,63.6,12.4,88.5,36.7c6.1,5.9,11.6,12.4,16.4,19.4v-8c-0.1-4.2,0.1-8.3,0.6-12.4
			c0.7-5.2,2.4-10.1,5-14.7c6.4-12.3,20-18.4,40.3-18.4c27.7,0,38.4,12.5,42.5,23c0.3,0.8,0.6,1.7,0.9,2.5
			c1.5,5.1,2.1,11.6,2.1,20.3v2.4c10.8-12.3,20.3-23.3,28.5-32.8c4-4.6,16.1-18.9,32.9-18.9c10.2,0,20.5,4.7,32.2,14.9
			c3.3,2.9,11.5,9.9,15.8,19.9c2.6-3.5,5.5-6.8,8.6-9.9C458,17.2,480.2,8.9,507.4,8.9c12.8-0.1,25.4,1.7,37.7,5.4
			c12,3.8,20.3,7.7,26.1,12.4l6.8,5.2c0.8,0.6,1.6,1.3,2.3,2c2.6,2.4,5,5,7.1,7.8c1-3.8,2.4-7.5,4.3-10.9
			c6.5-12.2,20-18.4,40.3-18.4c27.7,0,38.4,12.5,42.5,23c0.4,0.9,0.7,1.9,0.9,2.8C676.9,43.3,677.6,49.6,677.6,58.1z"/>
		
			<image style="overflow:visible;enable-background:new    ;" width="822" height="671" xlink:href="21742C74.png"  transform="matrix(1 0 0 1 -40.4255 -197.2766)">
		</image>
		<path class="st1" d="M129.1,251.3c-30.1,0-56.1-11-77.1-32.8s-31.7-48-31.7-78.1c-0.1-15.9,2.9-31.6,8.9-46.3
			c5.9-14.3,14-26.5,23.9-36.3c9.9-9.7,21.5-17.5,34.3-22.9c12.6-5.5,26.3-8.3,40.1-8.4c29.3,0,55.1,10.7,76.7,31.9
			s32.5,47.8,32.5,79.2s-10.4,58.3-31,80.4S159.3,251.3,129.1,251.3z M127.4,32.9c-12.9,0-25.7,2.7-37.6,7.8
			c-12,5.2-23,12.5-32.4,21.7C48.2,71.5,40.6,83,35,96.5c-5.7,13.9-8.6,28.8-8.4,43.9c0,28.8,9.8,52.9,30,73.7s43.9,30.9,72.6,30.9
			s52.2-10.3,71.8-31.3s29.3-46,29.3-76s-10-54.4-30.6-74.6S155.4,32.9,127.4,32.9L127.4,32.9z M128.6,200c-14.5,0-27.7-5.7-39.4-17
			s-17.6-26.1-17.6-44.1s5.9-32.8,17.5-44.1s24.8-17,39.3-17s27.8,5.6,39.4,16.8s17.6,26.2,17.6,44.6s-5.9,33.3-17.5,44.3
			S143,200,128.6,200z M128.3,84.2c-13,0-24.4,5-34.9,15.2S77.9,122.5,77.9,139s5.1,29.4,15.7,39.6s22,15.2,35,15.2
			s24.4-4.8,34.9-14.8s15.5-22.9,15.5-39.7s-5.1-29.9-15.7-40S141.2,84.2,128.3,84.2L128.3,84.2z"/>
		<g>
			<defs>
				<path id="SVGID_1_" d="M129.1,255.5c-31.3,0-58.3-11.5-80.2-34.1S16,171.6,16,140.4c-0.1-16.4,3-32.7,9.3-47.9
					C31.4,77.7,39.8,65,50.1,54.9c10.3-10.1,22.3-18.1,35.6-23.8c13.2-5.7,27.4-8.7,41.7-8.7c30.4,0,57.2,11.1,79.6,33.1
					s33.8,49.7,33.8,82.2s-10.8,60.4-32.1,83.3S160.5,255.5,129.1,255.5z M127.4,37.1c-12.4,0-24.6,2.6-35.9,7.5
					c-11.6,5-22.1,12-31.1,20.8c-8.9,8.7-16.1,19.7-21.5,32.7c-5.5,13.4-8.2,27.7-8.1,42.2c0,27.6,9.4,50.8,28.8,70.8
					s42,29.6,69.6,29.6s50-9.8,68.8-30c18.9-20.3,28.1-44.2,28.1-73.2s-9.6-52.2-29.4-71.6S154.2,37.1,127.4,37.1z M128.6,204.3
					c-15.6,0-29.9-6.1-42.3-18.1s-18.9-28-18.9-47.2s6.3-35,18.8-47.1s26.6-18.2,42.2-18.2s29.9,6,42.3,18s18.9,28,18.9,47.6
					s-6.3,35.5-18.8,47.4S144.2,204.3,128.6,204.3z M128.3,88.4c-11.8,0-22.3,4.6-31.9,14S82.1,123.7,82.1,139s4.7,27.2,14.4,36.5
					s20.3,14,32.1,14s22.3-4.5,32-13.6s14.2-21,14.2-36.6s-4.7-27.7-14.4-37S140.1,88.4,128.3,88.4L128.3,88.4z"/>
			</defs>
			<clipPath id="SVGID_2_">
				<use xlink:href="#SVGID_1_"  style="overflow:visible;"/>
			</clipPath>
			<g class="st2">
				
					<linearGradient id="SVGID_3_" gradientUnits="userSpaceOnUse" x1="-1.5956" y1="137.5834" x2="744.6445" y2="137.5834" gradientTransform="matrix(1 0 0 -1 0 277.4468)">
					<stop  offset="0" style="stop-color:#7AC943"/>
					<stop  offset="0.25" style="stop-color:#00FFFF"/>
					<stop  offset="0.49" style="stop-color:#0018FF"/>
					<stop  offset="0.78" style="stop-color:#FF00FF"/>
					<stop  offset="1" style="stop-color:#FF0000"/>
				</linearGradient>
				<rect x="-1.6" y="-25.8" class="st3" width="746.2" height="331.3"/>
				
					<linearGradient id="SVGID_4_" gradientUnits="userSpaceOnUse" x1="-4.4255" y1="139.2234" x2="693.5745" y2="139.2234" gradientTransform="matrix(1 0 0 -1 0 277.4468)">
					<stop  offset="0" style="stop-color:#00AF79"/>
					<stop  offset="0.35" style="stop-color:#F0E300"/>
					<stop  offset="0.68" style="stop-color:#00D8EC"/>
					<stop  offset="1" style="stop-color:#00DFA9"/>
				</linearGradient>
				<rect x="-4.4" y="-161.3" class="st4" width="698" height="599"/>
			</g>
		</g>
		<path class="st1" d="M385.1,250.7c-6,0-12.5-4.2-20.2-13.3l-50.8-57.9c-0.8-0.9-2-1.4-3.2-1.4c-0.5,0-1,0.1-1.5,0.3
			c-1.7,0.6-2.8,2.2-2.7,4v36.9c0.1,3.5-0.1,7.1-0.5,10.6c-0.5,3-1.6,5.9-3.1,8.6c-3.3,6.4-11.6,9.5-25.4,9.5
			c-14.9,0-23.9-4.4-26.7-13.1c-1.3-3.6-1.9-8.9-1.9-15.9V57.8c-0.1-3.5,0.1-7,0.5-10.4c0.5-3.1,1.5-6,3.1-8.8
			c3.3-6.4,11.6-9.5,25.4-9.5c14.9,0,24,4.3,27,12.8l0.1,0.3c1,3.5,1.5,8.7,1.5,15.8V94c0,1.8,1.1,3.3,2.7,3.9
			c0.5,0.2,1,0.3,1.5,0.3c1.2,0,2.4-0.5,3.2-1.4c20.5-23.1,37.5-42.6,50.8-58.1c7.5-8.7,14-13,20.1-13c5.9,0,12.8,3.5,21.2,10.8
			s12.7,13.8,12.7,19.8c0,5.8-3.1,12.2-9.5,19.6c-11.2,12.9-28.8,31-52.4,53.5l-6,5.7c-1.7,1.6-1.7,4.3-0.1,6c0,0,0.1,0.1,0.1,0.1
			c26.6,25.6,45.9,45.5,57.5,58.8c7,7.8,10.3,14.4,10.3,20.2c0,5.9-4.1,12.4-12.7,19.8C397.8,247.1,390.7,250.7,385.1,250.7z
			 M369.6,233.3c7.9,9.2,12.7,11.1,15.4,11.1c4.1,0,9.8-3.1,16.9-9.2c8.7-7.5,10.5-12.3,10.5-15s-1.5-7.9-8.8-16
			c-12.3-14.2-33.4-35.7-62.7-63.8l-2.4-2.3l14-13.3c23.4-22.4,40.9-40.3,51.9-53.1c5.3-6.1,7.9-11.3,7.9-15.5
			c0-2.7-1.8-7.5-10.5-15c-8.8-7.6-14.2-9.2-17-9.2s-7.7,1.9-15.3,10.8c-16,18.7-37.5,43.2-63.8,72.7l-5.5,6.2V58.1
			c0-6.2-0.4-10.9-1.2-13.9c0-0.1-0.1-0.3-0.1-0.4c-2.2-5.5-9.2-8.3-20.9-8.3c-7.6,0-17.2,1.1-19.8,6.1c-1.2,2.1-2,4.3-2.4,6.6
			c-0.3,3.2-0.5,6.4-0.4,9.6v161.1c0,6.4,0.5,10.9,1.5,13.7l0.1,0.3c1.8,5.7,8.8,8.7,20.7,8.7c7.6,0,17.2-1.1,19.8-6.1
			c1.2-2,2-4.2,2.4-6.5c0.3-3.2,0.5-6.5,0.4-9.7v-64.9L369.6,233.3z"/>
		<g>
			<defs>
				<path id="SVGID_5_" d="M385.1,255c-7.4,0-14.8-4.7-23.4-14.7l-50.7-57.9v36.9c0.1,3.7-0.1,7.4-0.5,11.1c-0.6,3.5-1.8,6.9-3.5,10
					c-4.1,7.9-13.6,11.7-29.1,11.7c-17,0-27.3-5.4-30.7-16c-1.4-4-2.1-9.6-2.1-17.2v-161c-0.1-3.7,0.1-7.3,0.5-11
					c0.6-3.6,1.8-7,3.6-10.1C253,28.9,262.5,25,278,25c16.9,0,27.4,5.3,31,15.6l0.1,0.4c1.2,4,1.8,9.6,1.8,17.1v35.9
					c20.5-23.1,37.5-42.6,50.7-58.1c8.3-9.7,15.9-14.4,23.3-14.4c6.9,0,14.7,3.9,23.9,11.8c9.5,8.2,14.1,15.7,14.1,23
					c0,6.8-3.4,14.1-10.5,22.3c-11.3,13.1-29,31.2-52.6,53.8l-6,5.7c26.7,25.8,46.1,45.7,57.8,59.1c7.6,8.5,11.4,16.1,11.4,22.9
					c0,7.2-4.6,14.8-14.1,23C399.7,251.1,391.9,255,385.1,255z M296.1,143.1l76.7,87.5c8,9.4,11.9,9.6,12.3,9.6
					c1.4,0,5.6-0.8,14.1-8.2s9-11.1,9-11.8c0-1.4-0.8-5.4-7.7-13.2c-12.2-14.2-33.2-35.5-62.5-63.6l-5.5-5.3l17.1-16.3
					c23.3-22.3,40.7-40.1,51.6-52.8c6-7,6.9-11,6.9-12.7c0-0.7-0.4-4.4-9-11.8s-12.9-8.2-14.3-8.2c-0.7,0-4.5,0.4-12.1,9.3
					c-16,18.7-37.5,43.2-63.8,72.8l-12.9,14.5V58.1c0-7.2-0.6-10.9-1.1-12.8c-1.9-4.9-11.5-5.6-17-5.6c-10.4,0-15.1,2.1-16,3.8
					c-1,1.6-1.6,3.4-2,5.2c-0.3,3-0.4,6-0.4,9.1v161.1c0,7.7,0.8,10.9,1.3,12.2l0.1,0.4c1.5,4.8,9.9,5.8,16.7,5.8
					c10.4,0,15.1-2.1,16-3.8c0.9-1.6,1.6-3.3,2-5.1c0.3-3,0.4-6.1,0.4-9.1L296.1,143.1z"/>
			</defs>
			<clipPath id="SVGID_6_">
				<use xlink:href="#SVGID_5_"  style="overflow:visible;"/>
			</clipPath>
			<g class="st5">
				
					<linearGradient id="SVGID_7_" gradientUnits="userSpaceOnUse" x1="-1.5956" y1="137.5834" x2="744.6445" y2="137.5834" gradientTransform="matrix(1 0 0 -1 0 277.4468)">
					<stop  offset="0" style="stop-color:#7AC943"/>
					<stop  offset="0.25" style="stop-color:#00FFFF"/>
					<stop  offset="0.49" style="stop-color:#0018FF"/>
					<stop  offset="0.78" style="stop-color:#FF00FF"/>
					<stop  offset="1" style="stop-color:#FF0000"/>
				</linearGradient>
				<rect x="-1.6" y="-25.8" class="st6" width="746.2" height="331.3"/>
				
					<linearGradient id="SVGID_8_" gradientUnits="userSpaceOnUse" x1="-4.4255" y1="139.2234" x2="693.5745" y2="139.2234" gradientTransform="matrix(1 0 0 -1 0 277.4468)">
					<stop  offset="0" style="stop-color:#00AF79"/>
					<stop  offset="0.35" style="stop-color:#F0E300"/>
					<stop  offset="0.68" style="stop-color:#00D8EC"/>
					<stop  offset="1" style="stop-color:#00DFA9"/>
				</linearGradient>
				<rect x="-4.4" y="-161.3" class="st7" width="698" height="599"/>
			</g>
		</g>
		<g>
			<defs>
				<path id="SVGID_9_" d="M510.1,255c-9.4,0-18.7-1.2-27.7-3.6c-8.8-2.4-16.1-5.5-21.7-9.1c-11-6.7-18.7-13.1-23.4-19.7l-2.5-3
					c-6.2-7.6-9.2-14.6-9.2-21.3c0-7.2,4.7-15,14.7-24.8c6.3-6,13.1-9,20.5-9c7.6,0,16.5,5.3,27.8,16.6l0.5,0.5
					c2.8,3.1,6,5.7,9.7,7.8c3.8,2.3,7.3,3.5,10.1,3.5c17.2,0,19.6-7,19.6-14.6c0-0.7,0-2.5-3.8-4.8c-4.9-2.8-10.3-4.7-15.9-5.6
					c-17.4-3.4-34.2-9.5-49.7-17.9c-8.5-4.7-15.7-12.1-21.3-22.1s-8.3-21.8-8.3-35.3c0-19,7.1-35.7,21.1-49.7s33.2-21.1,56.9-21.1
					c11.5-0.1,22.9,1.5,33.9,4.8c10.5,3.3,17.8,6.7,22.2,10.4l7.7,5.9c7.7,7.2,11.3,13.4,11.3,19.6c0,5.5-2.6,11.9-8.2,20.1
					C566.4,94,557.5,100,548,100c-5.6,0-11.8-2.3-19.1-7c-1.6-1.1-3-2.4-4.4-3.7c-1.1-1.1-2.3-2.1-3.5-3c-2.8-1.7-6.7-2.5-11.4-2.5
					s-8.4,1-11.3,3.1c-2.1,1.4-3.3,3.9-3.2,6.5c0,2,0.5,4.3,4.1,6.8c4.7,2.9,10,4.8,15.5,5.5c8.4,1.4,16.7,3.3,24.9,5.6
					c8.7,2.4,17.1,5.5,25.2,9.3c8.7,4.1,16,11.2,21.6,21.1c5.5,9.7,8.4,21.6,8.4,35.4s-2.8,26-8.4,36.6s-13.1,19.1-22.2,24.9
					C547.4,249.4,529.2,255,510.1,255z M446.3,210.2l2.9,3.6c3.4,4.9,9.9,10.3,19.2,15.9l0.2,0.1c4.4,2.9,10.3,5.3,17.6,7.3
					c7.8,2.1,15.8,3.1,23.8,3.1c16.2,0,31.7-4.8,46.1-14.1c7.3-4.9,13.3-11.6,17.2-19.4c4.4-8.4,6.7-18.4,6.7-29.7s-2.2-20.6-6.4-28
					c-4.1-7.2-9.2-12.3-15.2-15.1c-7.4-3.4-15-6.3-22.9-8.4c-7.6-2.2-15.4-3.9-23.2-5.2c-8.4-1.3-15.5-4-21.3-7.8
					c-7-4.6-10.7-11.2-10.7-19c-0.2-7.3,3.3-14.2,9.3-18.4c5.4-3.9,12.1-5.9,20-5.9c7.6,0,14.2,1.6,19.4,4.9l0.4,0.3
					c1.8,1.3,3.6,2.8,5.2,4.4c1.8,1.7,2.4,2.1,2.4,2.2c6.1,3.9,9.4,4.5,10.9,4.5c5.4,0,10.7-6.1,14.2-11.3c5.3-7.7,5.7-11,5.7-11.8
					c0,0-0.1-2.6-6.4-8.6l-7.2-5.5c-2-1.7-6.6-4.4-17.3-7.7c-9.6-2.9-19.5-4.3-29.5-4.1c-20,0-35.2,5.5-46.5,16.8
					s-16.8,24.1-16.8,39.3c0,11,2.2,20.5,6.4,28.1s9.4,13,15.5,16.4c14.2,7.7,29.4,13.2,45.3,16.3c7.4,1.2,14.4,3.7,20.9,7.5
					c9,5.5,10.9,12.5,10.9,17.5c0,11-4.5,29.4-34.3,29.4c-5.6,0-11.5-1.9-17.7-5.5c-5-2.8-9.5-6.5-13.3-10.8
					c-11.6-11.5-16.3-12.1-17.1-12.1c-3.5,0-6.8,1.6-10.2,4.9c-9.9,9.7-10.2,13.8-10.2,14.2C440.4,200.4,441.4,204.2,446.3,210.2z"
					/>
			</defs>
			<clipPath id="SVGID_10_">
				<use xlink:href="#SVGID_9_"  style="overflow:visible;"/>
			</clipPath>
			<g class="st8">
				
					<linearGradient id="SVGID_11_" gradientUnits="userSpaceOnUse" x1="-1.5956" y1="137.5834" x2="744.6445" y2="137.5834" gradientTransform="matrix(1 0 0 -1 0 277.4468)">
					<stop  offset="0" style="stop-color:#7AC943"/>
					<stop  offset="0.25" style="stop-color:#00FFFF"/>
					<stop  offset="0.49" style="stop-color:#0018FF"/>
					<stop  offset="0.78" style="stop-color:#FF00FF"/>
					<stop  offset="1" style="stop-color:#FF0000"/>
				</linearGradient>
				<rect x="-1.6" y="-25.8" class="st9" width="746.2" height="331.3"/>
				
					<linearGradient id="SVGID_12_" gradientUnits="userSpaceOnUse" x1="-4.4255" y1="139.2234" x2="693.5745" y2="139.2234" gradientTransform="matrix(1 0 0 -1 0 277.4468)">
					<stop  offset="0" style="stop-color:#00AF79"/>
					<stop  offset="0.35" style="stop-color:#F0E300"/>
					<stop  offset="0.68" style="stop-color:#00D8EC"/>
					<stop  offset="1" style="stop-color:#00DFA9"/>
				</linearGradient>
				<rect x="-4.4" y="-161.3" class="st10" width="698" height="599"/>
			</g>
		</g>
		<path class="st1" d="M510.1,250.7c-9,0-17.9-1.1-26.6-3.5c-8.3-2.3-15.2-5.2-20.5-8.6c-10.6-6.4-17.9-12.5-22.3-18.6l-0.2-0.2
			l-2.5-3c-5.5-6.8-8.2-12.9-8.2-18.6s4.4-13,13.4-21.8c5.4-5.2,11.3-7.9,17.6-7.9s14.5,5,24.8,15.4l0.3,0.3c3,3.5,6.7,6.4,10.7,8.7
			c4.5,2.7,8.6,4,12.3,4c16.2,0,23.8-6,23.8-18.9c0-3.3-1.9-6-5.9-8.5c-5.4-3.1-11.2-5.1-17.3-6.1c-8.2-1.6-16.3-3.8-24.2-6.6
			c-8.4-2.9-16.5-6.5-24.2-10.8c-7.8-4.3-14.4-11.2-19.6-20.5s-7.8-20.4-7.8-33.2c0-17.8,6.7-33.5,19.9-46.7s31.4-19.9,54-19.9
			c11.1-0.1,22.1,1.5,32.7,4.6c10,3.1,16.8,6.3,20.8,9.6l7.7,5.8c6.7,6.3,9.8,11.5,9.8,16.4c0,4.6-2.5,10.4-7.5,17.7
			C563.7,90.4,556,95.7,548,95.7c-4.7,0-10.2-2.1-16.8-6.3c-1.3-1-2.6-2.1-3.8-3.3c-1.2-1.2-2.5-2.3-3.9-3.3l-0.4-0.2
			c-3.5-2.1-8.1-3.1-13.5-3.1c-5.7,0-10.2,1.3-13.8,3.9c-3.2,2.2-5.1,6-4.9,9.9c0,4.2,2,7.6,6,10.3c5.2,3.3,11,5.4,17.1,6.2
			c8.2,1.4,16.4,3.2,24.4,5.4c8.4,2.3,16.6,5.3,24.5,9c7.9,3.7,14.5,10.3,19.8,19.4s7.8,20.3,7.8,33.3s-2.7,24.7-7.9,34.6
			s-12.3,17.9-20.8,23.4C545.8,245.4,528.4,250.7,510.1,250.7z M445.8,216.3c3.8,5.4,10.7,11.1,20.4,16.9l0.2,0.1
			c4.6,3,11,5.7,18.7,7.8c8.1,2.2,16.5,3.3,24.9,3.2c17.1,0,33.3-5,48.4-14.8c7.9-5.3,14.4-12.5,18.6-21c4.8-9.1,7.2-19.7,7.2-31.7
			s-2.3-22.1-7-30.1s-10.3-13.6-17-16.8c-7.6-3.5-15.5-6.4-23.5-8.6c-7.8-2.2-15.7-4-23.7-5.3c-7.8-1.2-14.4-3.6-19.7-7.2
			c-5.8-3.8-8.8-9.1-8.8-15.5c-0.2-6,2.6-11.6,7.5-15c4.7-3.4,10.6-5.1,17.5-5.1s12.6,1.4,17.2,4.2l0.3,0.2c1.6,1.2,3.2,2.5,4.7,4
			c0.9,0.9,1.8,1.7,2.8,2.5l0.2,0.2c6.6,4.3,10.8,5.2,13.2,5.2c5.8,0,11.8-4.4,17.7-13.1c4.2-6.1,6.4-11,6.4-14.1
			c0-2-1.3-5.6-7.7-11.6c-0.1-0.1-0.2-0.2-0.3-0.3l-7.2-5.5c-3.2-2.7-9.5-5.6-18.6-8.4c-10-3-20.4-4.5-30.8-4.4
			c-21.2,0-37.3,5.9-49.5,18.1c-12.1,12.1-18,26-18,42.2c0,11.8,2.4,21.9,7,30.2s10.4,14.3,17.2,18c14.6,7.9,30.3,13.5,46.5,16.8
			c6.8,1.1,13.4,3.5,19.5,6.9c5.9,3.6,8.9,8.3,8.9,13.9c0,11.5-5.2,25.2-30.1,25.2c-4.8,0-10-1.7-15.5-4.9
			c-4.6-2.6-8.7-5.9-12.2-9.9l-0.3-0.3c-11.1-11-17-13.3-20.1-13.3c-4.6,0-8.9,2-13.2,6.1c-10,9.8-11.5,15-11.5,17.3
			c0,4.2,2.3,9.1,6.8,14.6L445.8,216.3z"/>
		<path class="st1" d="M631.7,247.8c-14.9,0-23.9-4.4-26.7-13.1c-1.3-3.6-1.9-8.9-1.9-15.9V57.8c-0.1-3.5,0.1-7,0.5-10.4
			c0.5-3.1,1.5-6,3.1-8.8c3.3-6.4,11.6-9.5,25.4-9.5c14.9,0,24,4.3,27,12.8l0.1,0.3c1,3.5,1.5,8.7,1.5,15.8v161.1
			c0.1,3.5-0.1,7.1-0.5,10.6c-0.5,3-1.6,5.9-3.1,8.6C653.8,244.7,645.5,247.8,631.7,247.8z M632,35.5c-7.6,0-17.2,1.1-19.8,6.1
			c-1.2,2.1-2,4.3-2.4,6.6c-0.3,3.2-0.5,6.4-0.4,9.6v161.1c0,6.4,0.5,11,1.5,13.7l0.1,0.3c1.8,5.7,8.8,8.7,20.7,8.7
			c7.6,0,17.2-1.1,19.8-6.1c1.2-2,2-4.2,2.4-6.5c0.3-3.2,0.5-6.5,0.4-9.7V58.1c0-6.2-0.4-10.9-1.2-13.9c0-0.1-0.1-0.3-0.1-0.4
			C650.8,38.3,643.7,35.5,632,35.5z"/>
		<g>
			<defs>
				<path id="SVGID_13_" d="M631.7,252.1c-16.9,0-27.3-5.4-30.7-16c-1.4-4-2.1-9.6-2.1-17.2v-161c-0.1-3.7,0.1-7.3,0.5-11
					c0.6-3.6,1.8-7,3.6-10.1C607,28.9,616.5,25,632,25c16.9,0,27.4,5.3,31,15.6l0.1,0.4c1.2,4,1.8,9.6,1.8,17.1v161
					c0.1,3.7-0.1,7.4-0.5,11.1c-0.6,3.5-1.8,6.9-3.5,10C656.7,248.2,647.2,252.1,631.7,252.1z M632,39.7c-10.4,0-15.1,2.1-16,3.8
					c-1,1.6-1.6,3.4-2,5.2c-0.3,3-0.4,6-0.4,9.1v161.1c0,7.7,0.8,10.9,1.3,12.2l0.1,0.4c1.5,4.8,9.9,5.8,16.7,5.8
					c10.4,0,15.1-2.1,16-3.8c1-1.6,1.6-3.3,2-5.1c0.3-3,0.4-6.1,0.4-9.1V58.1c0-7.2-0.6-10.9-1.1-12.8
					C647.1,40.5,637.6,39.7,632,39.7z"/>
			</defs>
			<clipPath id="SVGID_14_">
				<use xlink:href="#SVGID_13_"  style="overflow:visible;"/>
			</clipPath>
			<g class="st11">
				
					<linearGradient id="SVGID_15_" gradientUnits="userSpaceOnUse" x1="-1.5956" y1="137.5834" x2="744.6445" y2="137.5834" gradientTransform="matrix(1 0 0 -1 0 277.4468)">
					<stop  offset="0" style="stop-color:#7AC943"/>
					<stop  offset="0.25" style="stop-color:#00FFFF"/>
					<stop  offset="0.49" style="stop-color:#0018FF"/>
					<stop  offset="0.78" style="stop-color:#FF00FF"/>
					<stop  offset="1" style="stop-color:#FF0000"/>
				</linearGradient>
				<rect x="-1.6" y="-25.8" class="st12" width="746.2" height="331.3"/>
				
					<linearGradient id="SVGID_16_" gradientUnits="userSpaceOnUse" x1="-4.4255" y1="139.2234" x2="693.5745" y2="139.2234" gradientTransform="matrix(1 0 0 -1 0 277.4468)">
					<stop  offset="1.000000e-02" style="stop-color:#00AF79"/>
					<stop  offset="0.35" style="stop-color:#F0E300"/>
					<stop  offset="0.68" style="stop-color:#0DD8EC"/>
					<stop  offset="1" style="stop-color:#00DFA9"/>
				</linearGradient>
				<rect x="-4.4" y="-161.3" class="st13" width="698" height="599"/>
			</g>
		</g>
		<path class="st1" d="M129.1,251.3c-30.1,0-56.1-11-77.1-32.8s-31.7-48-31.7-78.1c-0.1-15.9,2.9-31.6,8.9-46.3
			c5.9-14.3,14-26.5,23.9-36.3c9.9-9.7,21.5-17.5,34.3-22.9c12.6-5.5,26.3-8.3,40.1-8.4c29.3,0,55.1,10.7,76.7,31.9
			s32.5,47.8,32.5,79.2s-10.4,58.3-31,80.4S159.3,251.3,129.1,251.3z M127.4,32.9c-12.9,0-25.7,2.7-37.6,7.8
			c-12,5.2-23,12.5-32.4,21.7C48.2,71.5,40.6,83,35,96.5c-5.7,13.9-8.6,28.8-8.4,43.9c0,28.8,9.8,52.9,30,73.7s43.9,30.9,72.6,30.9
			s52.2-10.3,71.8-31.3s29.3-46,29.3-76s-10-54.4-30.6-74.6S155.4,32.9,127.4,32.9L127.4,32.9z M128.6,200c-14.5,0-27.7-5.7-39.4-17
			s-17.6-26.1-17.6-44.1s5.9-32.8,17.5-44.1s24.8-17,39.3-17s27.8,5.6,39.4,16.8s17.6,26.2,17.6,44.6s-5.9,33.3-17.5,44.3
			S143,200,128.6,200z M128.3,84.2c-13,0-24.4,5-34.9,15.2S77.9,122.5,77.9,139s5.1,29.4,15.7,39.6s22,15.2,35,15.2
			s24.4-4.8,34.9-14.8s15.5-22.9,15.5-39.7s-5.1-29.9-15.7-40S141.2,84.2,128.3,84.2L128.3,84.2z"/>
		<g>
			<defs>
				<path id="SVGID_17_" d="M129.1,255.5c-31.3,0-58.3-11.5-80.2-34.1S16,171.6,16,140.4c-0.1-16.4,3-32.7,9.3-47.9
					C31.4,77.7,39.8,65,50.1,54.9c10.3-10.1,22.3-18.1,35.6-23.8c13.2-5.7,27.4-8.7,41.7-8.7c30.4,0,57.2,11.1,79.6,33.1
					s33.8,49.7,33.8,82.2s-10.8,60.4-32.1,83.3S160.5,255.5,129.1,255.5z M127.4,37.1c-12.4,0-24.6,2.6-35.9,7.5
					c-11.6,5-22.1,12-31.1,20.8c-8.9,8.7-16.1,19.7-21.5,32.7c-5.5,13.4-8.2,27.7-8.1,42.2c0,27.6,9.4,50.8,28.8,70.8
					s42,29.6,69.6,29.6s50-9.8,68.8-30c18.9-20.3,28.1-44.2,28.1-73.2s-9.6-52.2-29.4-71.6S154.2,37.1,127.4,37.1z M128.6,204.3
					c-15.6,0-29.9-6.1-42.3-18.1s-18.9-28-18.9-47.2s6.3-35,18.8-47.1s26.6-18.2,42.2-18.2s29.9,6,42.3,18s18.9,28,18.9,47.6
					s-6.3,35.5-18.8,47.4S144.2,204.3,128.6,204.3z M128.3,88.4c-11.8,0-22.3,4.6-31.9,14S82.1,123.7,82.1,139s4.7,27.2,14.4,36.5
					s20.3,14,32.1,14s22.3-4.5,32-13.6s14.2-21,14.2-36.6s-4.7-27.7-14.4-37S140.1,88.4,128.3,88.4L128.3,88.4z"/>
			</defs>
			<clipPath id="SVGID_18_">
				<use xlink:href="#SVGID_17_"  style="overflow:visible;"/>
			</clipPath>
			<g class="st14">
				
					<linearGradient id="SVGID_19_" gradientUnits="userSpaceOnUse" x1="-1.5956" y1="137.5834" x2="744.6445" y2="137.5834" gradientTransform="matrix(1 0 0 -1 0 277.4468)">
					<stop  offset="0" style="stop-color:#7AC943"/>
					<stop  offset="0.25" style="stop-color:#00FFFF"/>
					<stop  offset="0.49" style="stop-color:#0018FF"/>
					<stop  offset="0.78" style="stop-color:#FF00FF"/>
					<stop  offset="1" style="stop-color:#FF0000"/>
				</linearGradient>
				<rect x="-1.6" y="-25.8" class="st15" width="746.2" height="331.3"/>
			</g>
		</g>
		<path class="st1" d="M385.1,250.7c-6,0-12.5-4.2-20.2-13.3l-50.8-57.9c-0.8-0.9-2-1.4-3.2-1.4c-0.5,0-1,0.1-1.5,0.3
			c-1.7,0.6-2.8,2.2-2.7,4v36.9c0.1,3.5-0.1,7.1-0.5,10.6c-0.5,3-1.6,5.9-3.1,8.6c-3.3,6.4-11.6,9.5-25.4,9.5
			c-14.9,0-23.9-4.4-26.7-13.1c-1.3-3.6-1.9-8.9-1.9-15.9V57.8c-0.1-3.5,0.1-7,0.5-10.4c0.5-3.1,1.5-6,3.1-8.8
			c3.3-6.4,11.6-9.5,25.4-9.5c14.9,0,24,4.3,27,12.8l0.1,0.3c1,3.5,1.5,8.7,1.5,15.8V94c0,1.8,1.1,3.3,2.7,3.9
			c0.5,0.2,1,0.3,1.5,0.3c1.2,0,2.4-0.5,3.2-1.4c20.5-23.1,37.5-42.6,50.8-58.1c7.5-8.7,14-13,20.1-13c5.9,0,12.8,3.5,21.2,10.8
			s12.7,13.8,12.7,19.8c0,5.8-3.1,12.2-9.5,19.6c-11.2,12.9-28.8,31-52.4,53.5l-6,5.7c-1.7,1.6-1.7,4.3-0.1,6c0,0,0.1,0.1,0.1,0.1
			c26.6,25.6,45.9,45.5,57.5,58.8c7,7.8,10.3,14.4,10.3,20.2c0,5.9-4.1,12.4-12.7,19.8C397.8,247.1,390.7,250.7,385.1,250.7z
			 M369.6,233.3c7.9,9.2,12.7,11.1,15.4,11.1c4.1,0,9.8-3.1,16.9-9.2c8.7-7.5,10.5-12.3,10.5-15s-1.5-7.9-8.8-16
			c-12.3-14.2-33.4-35.7-62.7-63.8l-2.4-2.3l14-13.3c23.4-22.4,40.9-40.3,51.9-53.1c5.3-6.1,7.9-11.3,7.9-15.5
			c0-2.7-1.8-7.5-10.5-15c-8.8-7.6-14.2-9.2-17-9.2s-7.7,1.9-15.3,10.8c-16,18.7-37.5,43.2-63.8,72.7l-5.5,6.2V58.1
			c0-6.2-0.4-10.9-1.2-13.9c0-0.1-0.1-0.3-0.1-0.4c-2.2-5.5-9.2-8.3-20.9-8.3c-7.6,0-17.2,1.1-19.8,6.1c-1.2,2.1-2,4.3-2.4,6.6
			c-0.3,3.2-0.5,6.4-0.4,9.6v161.1c0,6.4,0.5,10.9,1.5,13.7l0.1,0.3c1.8,5.7,8.8,8.7,20.7,8.7c7.6,0,17.2-1.1,19.8-6.1
			c1.2-2,2-4.2,2.4-6.5c0.3-3.2,0.5-6.5,0.4-9.7v-64.9L369.6,233.3z"/>
		<g>
			<defs>
				<path id="SVGID_20_" d="M385.1,255c-7.4,0-14.8-4.7-23.4-14.7l-50.7-57.9v36.9c0.1,3.7-0.1,7.4-0.5,11.1
					c-0.6,3.5-1.8,6.9-3.5,10c-4.1,7.9-13.6,11.7-29.1,11.7c-17,0-27.3-5.4-30.7-16c-1.4-4-2.1-9.6-2.1-17.2v-161
					c-0.1-3.7,0.1-7.3,0.5-11c0.6-3.6,1.8-7,3.6-10.1C253,28.9,262.5,25,278,25c16.9,0,27.4,5.3,31,15.6l0.1,0.4
					c1.2,4,1.8,9.6,1.8,17.1v35.9c20.5-23.1,37.5-42.6,50.7-58.1c8.3-9.7,15.9-14.4,23.3-14.4c6.9,0,14.7,3.9,23.9,11.8
					c9.5,8.2,14.1,15.7,14.1,23c0,6.8-3.4,14.1-10.5,22.3c-11.3,13.1-29,31.2-52.6,53.8l-6,5.7c26.7,25.8,46.1,45.7,57.8,59.1
					c7.6,8.5,11.4,16.1,11.4,22.9c0,7.2-4.6,14.8-14.1,23C399.7,251.1,391.9,255,385.1,255z M296.1,143.1l76.7,87.5
					c8,9.4,11.9,9.6,12.3,9.6c1.4,0,5.6-0.8,14.1-8.2s9-11.1,9-11.8c0-1.4-0.8-5.4-7.7-13.2c-12.2-14.2-33.2-35.5-62.5-63.6
					l-5.5-5.3l17.1-16.3c23.3-22.3,40.7-40.1,51.6-52.8c6-7,6.9-11,6.9-12.7c0-0.7-0.4-4.4-9-11.8s-12.9-8.2-14.3-8.2
					c-0.7,0-4.5,0.4-12.1,9.3c-16,18.7-37.5,43.2-63.8,72.8l-12.9,14.5V58.1c0-7.2-0.6-10.9-1.1-12.8c-1.9-4.9-11.5-5.6-17-5.6
					c-10.4,0-15.1,2.1-16,3.8c-1,1.6-1.6,3.4-2,5.2c-0.3,3-0.4,6-0.4,9.1v161.1c0,7.7,0.8,10.9,1.3,12.2l0.1,0.4
					c1.5,4.8,9.9,5.8,16.7,5.8c10.4,0,15.1-2.1,16-3.8c0.9-1.6,1.6-3.3,2-5.1c0.3-3,0.4-6.1,0.4-9.1L296.1,143.1z"/>
			</defs>
			<clipPath id="SVGID_21_">
				<use xlink:href="#SVGID_20_"  style="overflow:visible;"/>
			</clipPath>
			<g class="st16">
				
					<linearGradient id="SVGID_22_" gradientUnits="userSpaceOnUse" x1="-1.5956" y1="137.5834" x2="744.6445" y2="137.5834" gradientTransform="matrix(1 0 0 -1 0 277.4468)">
					<stop  offset="0" style="stop-color:#7AC943"/>
					<stop  offset="0.25" style="stop-color:#00FFFF"/>
					<stop  offset="0.49" style="stop-color:#0018FF"/>
					<stop  offset="0.78" style="stop-color:#FF00FF"/>
					<stop  offset="1" style="stop-color:#FF0000"/>
				</linearGradient>
				<rect x="-1.6" y="-25.8" class="st17" width="746.2" height="331.3"/>
				
					<linearGradient id="SVGID_23_" gradientUnits="userSpaceOnUse" x1="-4.4255" y1="139.2234" x2="693.5745" y2="139.2234" gradientTransform="matrix(1 0 0 -1 0 277.4468)">
					<stop  offset="0" style="stop-color:#00AF79"/>
					<stop  offset="0.35" style="stop-color:#F0E300"/>
					<stop  offset="0.68" style="stop-color:#00D8EC"/>
					<stop  offset="1" style="stop-color:#07DFA9"/>
				</linearGradient>
				<rect x="-4.4" y="-161.3" class="st18" width="698" height="599"/>
			</g>
		</g>
		<path class="st1" d="M510.1,250.7c-9,0-17.9-1.1-26.6-3.5c-8.3-2.3-15.2-5.2-20.5-8.6c-10.6-6.4-17.9-12.5-22.3-18.6l-0.2-0.2
			l-2.5-3c-5.5-6.8-8.2-12.9-8.2-18.6s4.4-13,13.4-21.8c5.4-5.2,11.3-7.9,17.6-7.9s14.5,5,24.8,15.4l0.3,0.3c3,3.5,6.7,6.4,10.7,8.7
			c4.5,2.7,8.6,4,12.3,4c16.2,0,23.8-6,23.8-18.9c0-3.3-1.9-6-5.9-8.5c-5.4-3.1-11.2-5.1-17.3-6.1c-8.2-1.6-16.3-3.8-24.2-6.6
			c-8.4-2.9-16.5-6.5-24.2-10.8c-7.8-4.3-14.4-11.2-19.6-20.5s-7.8-20.4-7.8-33.2c0-17.8,6.7-33.5,19.9-46.7s31.4-19.9,54-19.9
			c11.1-0.1,22.1,1.5,32.7,4.6c10,3.1,16.8,6.3,20.8,9.6l7.7,5.8c6.7,6.3,9.8,11.5,9.8,16.4c0,4.6-2.5,10.4-7.5,17.7
			C563.7,90.4,556,95.7,548,95.7c-4.7,0-10.2-2.1-16.8-6.3c-1.3-1-2.6-2.1-3.8-3.3c-1.2-1.2-2.5-2.3-3.9-3.3l-0.4-0.2
			c-3.5-2.1-8.1-3.1-13.5-3.1c-5.7,0-10.2,1.3-13.8,3.9c-3.2,2.2-5.1,6-4.9,9.9c0,4.2,2,7.6,6,10.3c5.2,3.3,11,5.4,17.1,6.2
			c8.2,1.4,16.4,3.2,24.4,5.4c8.4,2.3,16.6,5.3,24.5,9c7.9,3.7,14.5,10.3,19.8,19.4s7.8,20.3,7.8,33.3s-2.7,24.7-7.9,34.6
			s-12.3,17.9-20.8,23.4C545.8,245.4,528.4,250.7,510.1,250.7z M445.8,216.3c3.8,5.4,10.7,11.1,20.4,16.9l0.2,0.1
			c4.6,3,11,5.7,18.7,7.8c8.1,2.2,16.5,3.3,24.9,3.2c17.1,0,33.3-5,48.4-14.8c7.9-5.3,14.4-12.5,18.6-21c4.8-9.1,7.2-19.7,7.2-31.7
			s-2.3-22.1-7-30.1s-10.3-13.6-17-16.8c-7.6-3.5-15.5-6.4-23.5-8.6c-7.8-2.2-15.7-4-23.7-5.3c-7.8-1.2-14.4-3.6-19.7-7.2
			c-5.8-3.8-8.8-9.1-8.8-15.5c-0.2-6,2.6-11.6,7.5-15c4.7-3.4,10.6-5.1,17.5-5.1s12.6,1.4,17.2,4.2l0.3,0.2c1.6,1.2,3.2,2.5,4.7,4
			c0.9,0.9,1.8,1.7,2.8,2.5l0.2,0.2c6.6,4.3,10.8,5.2,13.2,5.2c5.8,0,11.8-4.4,17.7-13.1c4.2-6.1,6.4-11,6.4-14.1
			c0-2-1.3-5.6-7.7-11.6c-0.1-0.1-0.2-0.2-0.3-0.3l-7.2-5.5c-3.2-2.7-9.5-5.6-18.6-8.4c-10-3-20.4-4.5-30.8-4.4
			c-21.2,0-37.3,5.9-49.5,18.1c-12.1,12.1-18,26-18,42.2c0,11.8,2.4,21.9,7,30.2s10.4,14.3,17.2,18c14.6,7.9,30.3,13.5,46.5,16.8
			c6.8,1.1,13.4,3.5,19.5,6.9c5.9,3.6,8.9,8.3,8.9,13.9c0,11.5-5.2,25.2-30.1,25.2c-4.8,0-10-1.7-15.5-4.9
			c-4.6-2.6-8.7-5.9-12.2-9.9l-0.3-0.3c-11.1-11-17-13.3-20.1-13.3c-4.6,0-8.9,2-13.2,6.1c-10,9.8-11.5,15-11.5,17.3
			c0,4.2,2.3,9.1,6.8,14.6L445.8,216.3z"/>
		<g>
			<defs>
				<path id="SVGID_24_" d="M510.1,255c-9.4,0-18.7-1.2-27.7-3.6c-8.8-2.4-16.1-5.5-21.7-9.1c-11-6.7-18.7-13.1-23.4-19.7l-2.5-3
					c-6.2-7.6-9.2-14.6-9.2-21.3c0-7.2,4.7-15,14.7-24.8c6.3-6,13.1-9,20.5-9c7.6,0,16.5,5.3,27.8,16.6l0.5,0.5
					c2.8,3.1,6,5.7,9.7,7.8c3.8,2.3,7.3,3.5,10.1,3.5c17.2,0,19.6-7,19.6-14.6c0-0.7,0-2.5-3.8-4.8c-4.9-2.8-10.3-4.7-15.9-5.6
					c-17.4-3.4-34.2-9.5-49.7-17.9c-8.5-4.7-15.7-12.1-21.3-22.1s-8.3-21.8-8.3-35.3c0-19,7.1-35.7,21.1-49.7s33.2-21.1,56.9-21.1
					c11.5-0.1,22.9,1.5,33.9,4.8c10.5,3.3,17.8,6.7,22.2,10.4l7.7,5.9c7.7,7.2,11.3,13.4,11.3,19.6c0,5.5-2.6,11.9-8.2,20.1
					C566.4,94,557.5,100,548,100c-5.6,0-11.8-2.3-19.1-7c-1.6-1.1-3-2.4-4.4-3.7c-1.1-1.1-2.3-2.1-3.5-3c-2.8-1.7-6.7-2.5-11.4-2.5
					s-8.4,1-11.3,3.1c-2.1,1.4-3.3,3.9-3.2,6.5c0,2,0.5,4.3,4.1,6.8c4.7,2.9,10,4.8,15.5,5.5c8.4,1.4,16.7,3.3,24.9,5.6
					c8.7,2.4,17.1,5.5,25.2,9.3c8.7,4.1,16,11.2,21.6,21.1c5.5,9.7,8.4,21.6,8.4,35.4s-2.8,26-8.4,36.6s-13.1,19.1-22.2,24.9
					C547.4,249.4,529.2,255,510.1,255z M446.3,210.2l2.9,3.6c3.4,4.9,9.9,10.3,19.2,15.9l0.2,0.1c4.4,2.9,10.3,5.3,17.6,7.3
					c7.8,2.1,15.8,3.1,23.8,3.1c16.2,0,31.7-4.8,46.1-14.1c7.3-4.9,13.3-11.6,17.2-19.4c4.4-8.4,6.7-18.4,6.7-29.7s-2.2-20.6-6.4-28
					c-4.1-7.2-9.2-12.3-15.2-15.1c-7.4-3.4-15-6.3-22.9-8.4c-7.6-2.2-15.4-3.9-23.2-5.2c-8.4-1.3-15.5-4-21.3-7.8
					c-7-4.6-10.7-11.2-10.7-19c-0.2-7.3,3.3-14.2,9.3-18.4c5.4-3.9,12.1-5.9,20-5.9c7.6,0,14.2,1.6,19.4,4.9l0.4,0.3
					c1.8,1.3,3.6,2.8,5.2,4.4c1.8,1.7,2.4,2.1,2.4,2.2c6.1,3.9,9.4,4.5,10.9,4.5c5.4,0,10.7-6.1,14.2-11.3c5.3-7.7,5.7-11,5.7-11.8
					c0,0-0.1-2.6-6.4-8.6l-7.2-5.5c-2-1.7-6.6-4.4-17.3-7.7c-9.6-2.9-19.5-4.3-29.5-4.1c-20,0-35.2,5.5-46.5,16.8
					s-16.8,24.1-16.8,39.3c0,11,2.2,20.5,6.4,28.1s9.4,13,15.5,16.4c14.2,7.7,29.4,13.2,45.3,16.3c7.4,1.2,14.4,3.7,20.9,7.5
					c9,5.5,10.9,12.5,10.9,17.5c0,11-4.5,29.4-34.3,29.4c-5.6,0-11.5-1.9-17.7-5.5c-5-2.8-9.5-6.5-13.3-10.8
					c-11.6-11.5-16.3-12.1-17.1-12.1c-3.5,0-6.8,1.6-10.2,4.9c-9.9,9.7-10.2,13.8-10.2,14.2C440.4,200.4,441.4,204.2,446.3,210.2z"
					/>
			</defs>
			<clipPath id="SVGID_25_">
				<use xlink:href="#SVGID_24_"  style="overflow:visible;"/>
			</clipPath>
			<g class="st19">
				
					<linearGradient id="SVGID_26_" gradientUnits="userSpaceOnUse" x1="-4.4255" y1="139.2234" x2="693.5745" y2="139.2234" gradientTransform="matrix(1 0 0 -1 0 277.4468)">
					<stop  offset="1.000000e-02" style="stop-color:#00AF79"/>
					<stop  offset="0.35" style="stop-color:#F0E300"/>
					<stop  offset="0.68" style="stop-color:#00D8EC"/>
					<stop  offset="1" style="stop-color:#00DFA9"/>
				</linearGradient>
				<rect x="-4.4" y="-161.3" class="st20" width="698" height="599"/>
			</g>
		</g>
		<g>
			<defs>
				<path id="SVGID_27_" d="M631.7,252.1c-16.9,0-27.3-5.4-30.7-16c-1.4-4-2.1-9.6-2.1-17.2v-161c-0.1-3.7,0.1-7.3,0.5-11
					c0.6-3.6,1.8-7,3.6-10.1C607,28.9,616.5,25,632,25c16.9,0,27.4,5.3,31,15.6l0.1,0.4c1.2,4,1.8,9.6,1.8,17.1v161
					c0.1,3.7-0.1,7.4-0.5,11.1c-0.6,3.5-1.8,6.9-3.5,10C656.7,248.2,647.2,252.1,631.7,252.1z M632,39.7c-10.4,0-15.1,2.1-16,3.8
					c-1,1.6-1.6,3.4-2,5.2c-0.3,3-0.4,6-0.4,9.1v161.1c0,7.7,0.8,10.9,1.3,12.2l0.1,0.4c1.5,4.8,9.9,5.8,16.7,5.8
					c10.4,0,15.1-2.1,16-3.8c1-1.6,1.6-3.3,2-5.1c0.3-3,0.4-6.1,0.4-9.1V58.1c0-7.2-0.6-10.9-1.1-12.8
					C647.1,40.5,637.6,39.7,632,39.7z"/>
			</defs>
			<clipPath id="SVGID_28_">
				<use xlink:href="#SVGID_27_"  style="overflow:visible;"/>
			</clipPath>
			<g class="st21">
				
					<linearGradient id="SVGID_29_" gradientUnits="userSpaceOnUse" x1="-4.4255" y1="139.2234" x2="693.5745" y2="139.2234" gradientTransform="matrix(1 0 0 -1 0 277.4468)">
					<stop  offset="0" style="stop-color:#00AF79"/>
					<stop  offset="0.35" style="stop-color:#F0E300"/>
					<stop  offset="0.68" style="stop-color:#00D8EC"/>
					<stop  offset="1" style="stop-color:#00DFA9"/>
				</linearGradient>
				<rect x="-4.4" y="-161.3" class="st22" width="698" height="599"/>
			</g>
		</g>
		<path class="st1" d="M631.7,247.8c-14.9,0-23.9-4.4-26.7-13.1c-1.3-3.6-1.9-8.9-1.9-15.9V57.8c-0.1-3.5,0.1-7,0.5-10.4
			c0.5-3.1,1.5-6,3.1-8.8c3.3-6.4,11.6-9.5,25.4-9.5c14.9,0,24,4.3,27,12.8l0.1,0.3c1,3.5,1.5,8.7,1.5,15.8v161.1
			c0.1,3.5-0.1,7.1-0.5,10.6c-0.5,3-1.6,5.9-3.1,8.6C653.8,244.7,645.5,247.8,631.7,247.8z M632,35.5c-7.6,0-17.2,1.1-19.8,6.1
			c-1.2,2.1-2,4.3-2.4,6.6c-0.3,3.2-0.5,6.4-0.4,9.6v161.1c0,6.4,0.5,11,1.5,13.7l0.1,0.3c1.8,5.7,8.8,8.7,20.7,8.7
			c7.6,0,17.2-1.1,19.8-6.1c1.2-2,2-4.2,2.4-6.5c0.3-3.2,0.5-6.5,0.4-9.7V58.1c0-6.2-0.4-10.9-1.2-13.9c0-0.1-0.1-0.3-0.1-0.4
			C650.8,38.3,643.7,35.5,632,35.5z"/>
		<g>
			<defs>
				<path id="SVGID_30_" d="M510.1,255c-9.4,0-18.7-1.2-27.7-3.6c-8.8-2.4-16.1-5.5-21.7-9.1c-11-6.7-18.7-13.1-23.4-19.7l-2.5-3
					c-6.2-7.6-9.2-14.6-9.2-21.3c0-7.2,4.7-15,14.7-24.8c6.3-6,13.1-9,20.5-9c7.6,0,16.5,5.3,27.8,16.6l0.5,0.5
					c2.8,3.1,6,5.7,9.7,7.8c3.8,2.3,7.3,3.5,10.1,3.5c17.2,0,19.6-7,19.6-14.6c0-0.7,0-2.5-3.8-4.8c-4.9-2.8-10.3-4.7-15.9-5.6
					c-17.4-3.4-34.2-9.5-49.7-17.9c-8.5-4.7-15.7-12.1-21.3-22.1s-8.3-21.8-8.3-35.3c0-19,7.1-35.7,21.1-49.7s33.2-21.1,56.9-21.1
					c11.5-0.1,22.9,1.5,33.9,4.8c10.5,3.3,17.8,6.7,22.2,10.4l7.7,5.9c7.7,7.2,11.3,13.4,11.3,19.6c0,5.5-2.6,11.9-8.2,20.1
					C566.4,94,557.5,100,548,100c-5.6,0-11.8-2.3-19.1-7c-1.6-1.1-3-2.4-4.4-3.7c-1.1-1.1-2.3-2.1-3.5-3c-2.8-1.7-6.7-2.5-11.4-2.5
					s-8.4,1-11.3,3.1c-2.1,1.4-3.3,3.9-3.2,6.5c0,2,0.5,4.3,4.1,6.8c4.7,2.9,10,4.8,15.5,5.5c8.4,1.4,16.7,3.3,24.9,5.6
					c8.7,2.4,17.1,5.5,25.2,9.3c8.7,4.1,16,11.2,21.6,21.1c5.5,9.7,8.4,21.6,8.4,35.4s-2.8,26-8.4,36.6s-13.1,19.1-22.2,24.9
					C547.4,249.4,529.2,255,510.1,255z M446.3,210.2l2.9,3.6c3.4,4.9,9.9,10.3,19.2,15.9l0.2,0.1c4.4,2.9,10.3,5.3,17.6,7.3
					c7.8,2.1,15.8,3.1,23.8,3.1c16.2,0,31.7-4.8,46.1-14.1c7.3-4.9,13.3-11.6,17.2-19.4c4.4-8.4,6.7-18.4,6.7-29.7s-2.2-20.6-6.4-28
					c-4.1-7.2-9.2-12.3-15.2-15.1c-7.4-3.4-15-6.3-22.9-8.4c-7.6-2.2-15.4-3.9-23.2-5.2c-8.4-1.3-15.5-4-21.3-7.8
					c-7-4.6-10.7-11.2-10.7-19c-0.2-7.3,3.3-14.2,9.3-18.4c5.4-3.9,12.1-5.9,20-5.9c7.6,0,14.2,1.6,19.4,4.9l0.4,0.3
					c1.8,1.3,3.6,2.8,5.2,4.4c1.8,1.7,2.4,2.1,2.4,2.2c6.1,3.9,9.4,4.5,10.9,4.5c5.4,0,10.7-6.1,14.2-11.3c5.3-7.7,5.7-11,5.7-11.8
					c0,0-0.1-2.6-6.4-8.6l-7.2-5.5c-2-1.7-6.6-4.4-17.3-7.7c-9.6-2.9-19.5-4.3-29.5-4.1c-20,0-35.2,5.5-46.5,16.8
					s-16.8,24.1-16.8,39.3c0,11,2.2,20.5,6.4,28.1s9.4,13,15.5,16.4c14.2,7.7,29.4,13.2,45.3,16.3c7.4,1.2,14.4,3.7,20.9,7.5
					c9,5.5,10.9,12.5,10.9,17.5c0,11-4.5,29.4-34.3,29.4c-5.6,0-11.5-1.9-17.7-5.5c-5-2.8-9.5-6.5-13.3-10.8
					c-11.6-11.5-16.3-12.1-17.1-12.1c-3.5,0-6.8,1.6-10.2,4.9c-9.9,9.7-10.2,13.8-10.2,14.2C440.4,200.4,441.4,204.2,446.3,210.2z"
					/>
			</defs>
			<clipPath id="SVGID_31_">
				<use xlink:href="#SVGID_30_"  style="overflow:visible;"/>
			</clipPath>
			<g class="st23">
				
					<linearGradient id="SVGID_32_" gradientUnits="userSpaceOnUse" x1="-4.4255" y1="139.2234" x2="693.5745" y2="139.2234" gradientTransform="matrix(1 0 0 -1 0 277.4468)">
					<stop  offset="1.000000e-02" style="stop-color:#5DAF2D"/>
					<stop  offset="0.35" style="stop-color:#F0E304"/>
					<stop  offset="0.68" style="stop-color:#35D8EC"/>
					<stop  offset="1" style="stop-color:#3B91A9"/>
				</linearGradient>
				<rect x="-4.4" y="-161.3" class="st24" width="698" height="599"/>
			</g>
		</g>
		<path class="st1" d="M510.1,250.7c-9,0-17.9-1.1-26.6-3.5c-8.3-2.3-15.2-5.2-20.5-8.6c-10.6-6.4-17.9-12.5-22.3-18.6l-0.2-0.2
			l-2.5-3c-5.5-6.8-8.2-12.9-8.2-18.6s4.4-13,13.4-21.8c5.4-5.2,11.3-7.9,17.6-7.9s14.5,5,24.8,15.4l0.3,0.3c3,3.5,6.7,6.4,10.7,8.7
			c4.5,2.7,8.6,4,12.3,4c16.2,0,23.8-6,23.8-18.9c0-3.3-1.9-6-5.9-8.5c-5.4-3.1-11.2-5.1-17.3-6.1c-8.2-1.6-16.3-3.8-24.2-6.6
			c-8.4-2.9-16.5-6.5-24.2-10.8c-7.8-4.3-14.4-11.2-19.6-20.5s-7.8-20.4-7.8-33.2c0-17.8,6.7-33.5,19.9-46.7s31.4-19.9,54-19.9
			c11.1-0.1,22.1,1.5,32.7,4.6c10,3.1,16.8,6.3,20.8,9.6l7.7,5.8c6.7,6.3,9.8,11.5,9.8,16.4c0,4.6-2.5,10.4-7.5,17.7
			C563.7,90.4,556,95.7,548,95.7c-4.7,0-10.2-2.1-16.8-6.3c-1.3-1-2.6-2.1-3.8-3.3c-1.2-1.2-2.5-2.3-3.9-3.3l-0.4-0.2
			c-3.5-2.1-8.1-3.1-13.5-3.1c-5.7,0-10.2,1.3-13.8,3.9c-3.2,2.2-5.1,6-4.9,9.9c0,4.2,2,7.6,6,10.3c5.2,3.3,11,5.4,17.1,6.2
			c8.2,1.4,16.4,3.2,24.4,5.4c8.4,2.3,16.6,5.3,24.5,9c7.9,3.7,14.5,10.3,19.8,19.4s7.8,20.3,7.8,33.3s-2.7,24.7-7.9,34.6
			s-12.3,17.9-20.8,23.4C545.8,245.4,528.4,250.7,510.1,250.7z M445.8,216.3c3.8,5.4,10.7,11.1,20.4,16.9l0.2,0.1
			c4.6,3,11,5.7,18.7,7.8c8.1,2.2,16.5,3.3,24.9,3.2c17.1,0,33.3-5,48.4-14.8c7.9-5.3,14.4-12.5,18.6-21c4.8-9.1,7.2-19.7,7.2-31.7
			s-2.3-22.1-7-30.1s-10.3-13.6-17-16.8c-7.6-3.5-15.5-6.4-23.5-8.6c-7.8-2.2-15.7-4-23.7-5.3c-7.8-1.2-14.4-3.6-19.7-7.2
			c-5.8-3.8-8.8-9.1-8.8-15.5c-0.2-6,2.6-11.6,7.5-15c4.7-3.4,10.6-5.1,17.5-5.1s12.6,1.4,17.2,4.2l0.3,0.2c1.6,1.2,3.2,2.5,4.7,4
			c0.9,0.9,1.8,1.7,2.8,2.5l0.2,0.2c6.6,4.3,10.8,5.2,13.2,5.2c5.8,0,11.8-4.4,17.7-13.1c4.2-6.1,6.4-11,6.4-14.1
			c0-2-1.3-5.6-7.7-11.6c-0.1-0.1-0.2-0.2-0.3-0.3l-7.2-5.5c-3.2-2.7-9.5-5.6-18.6-8.4c-10-3-20.4-4.5-30.8-4.4
			c-21.2,0-37.3,5.9-49.5,18.1c-12.1,12.1-18,26-18,42.2c0,11.8,2.4,21.9,7,30.2s10.4,14.3,17.2,18c14.6,7.9,30.3,13.5,46.5,16.8
			c6.8,1.1,13.4,3.5,19.5,6.9c5.9,3.6,8.9,8.3,8.9,13.9c0,11.5-5.2,25.2-30.1,25.2c-4.8,0-10-1.7-15.5-4.9
			c-4.6-2.6-8.7-5.9-12.2-9.9l-0.3-0.3c-11.1-11-17-13.3-20.1-13.3c-4.6,0-8.9,2-13.2,6.1c-10,9.8-11.5,15-11.5,17.3
			c0,4.2,2.3,9.1,6.8,14.6L445.8,216.3z"/>
		<path id="SVGID-6" class="st25" d="M631.7,252.1c-16.9,0-27.3-5.4-30.7-16c-1.4-4-2.1-9.6-2.1-17.2v-161c-0.1-3.7,0.1-7.3,0.5-11
			c0.6-3.6,1.8-7,3.6-10.1C607,28.9,616.5,25,632,25c16.9,0,27.4,5.3,31,15.6l0.1,0.4c1.2,4,1.8,9.6,1.8,17.1v161
			c0.1,3.7-0.1,7.4-0.5,11.1c-0.6,3.5-1.8,6.9-3.5,10C656.7,248.2,647.2,252.1,631.7,252.1z M632,39.7c-10.4,0-15.1,2.1-16,3.8
			c-1,1.6-1.6,3.4-2,5.2c-0.3,3-0.4,6-0.4,9.1v161.1c0,7.7,0.8,10.9,1.3,12.2l0.1,0.4c1.5,4.8,9.9,5.8,16.7,5.8
			c10.4,0,15.1-2.1,16-3.8c1-1.6,1.6-3.3,2-5.1c0.3-3,0.4-6.1,0.4-9.1V58.1c0-7.2-0.6-10.9-1.1-12.8C647.1,40.5,637.6,39.7,632,39.7
			z"/>
		<path class="st1" d="M631.7,247.8c-14.9,0-23.9-4.4-26.7-13.1c-1.3-3.6-1.9-8.9-1.9-15.9V57.8c-0.1-3.5,0.1-7,0.5-10.4
			c0.5-3.1,1.5-6,3.1-8.8c3.3-6.4,11.6-9.5,25.4-9.5c14.9,0,24,4.3,27,12.8l0.1,0.3c1,3.5,1.5,8.7,1.5,15.8v161.1
			c0.1,3.5-0.1,7.1-0.5,10.6c-0.5,3-1.6,5.9-3.1,8.6C653.8,244.7,645.5,247.8,631.7,247.8z M632,35.5c-7.6,0-17.2,1.1-19.8,6.1
			c-1.2,2.1-2,4.3-2.4,6.6c-0.3,3.2-0.5,6.4-0.4,9.6v161.1c0,6.4,0.5,11,1.5,13.7l0.1,0.3c1.8,5.7,8.8,8.7,20.7,8.7
			c7.6,0,17.2-1.1,19.8-6.1c1.2-2,2-4.2,2.4-6.5c0.3-3.2,0.5-6.5,0.4-9.7V58.1c0-6.2-0.4-10.9-1.2-13.9c0-0.1-0.1-0.3-0.1-0.4
			C650.8,38.3,643.7,35.5,632,35.5z"/>
		<path id="SVGID-7" class="st25" d="M129.1,255.5c-31.3,0-58.3-11.5-80.2-34.1S16,171.6,16,140.4c-0.1-16.4,3-32.7,9.3-47.9
			C31.4,77.7,39.8,65,50.1,54.9c10.3-10.1,22.3-18.1,35.6-23.8c13.2-5.7,27.4-8.7,41.7-8.7c30.4,0,57.2,11.1,79.6,33.1
			s33.8,49.7,33.8,82.2s-10.8,60.4-32.1,83.3S160.5,255.5,129.1,255.5z M127.4,37.1c-12.4,0-24.6,2.6-35.9,7.5
			c-11.6,5-22.1,12-31.1,20.8c-8.9,8.7-16.1,19.7-21.5,32.7c-5.5,13.4-8.2,27.7-8.1,42.2c0,27.6,9.4,50.8,28.8,70.8
			s42,29.6,69.6,29.6s50-9.8,68.8-30c18.9-20.3,28.1-44.2,28.1-73.2s-9.6-52.2-29.4-71.6S154.2,37.1,127.4,37.1z M128.6,204.3
			c-15.6,0-29.9-6.1-42.3-18.1s-18.9-28-18.9-47.2s6.3-35,18.8-47.1s26.6-18.2,42.2-18.2s29.9,6,42.3,18s18.9,28,18.9,47.6
			s-6.3,35.5-18.8,47.4S144.2,204.3,128.6,204.3z M128.3,88.4c-11.8,0-22.3,4.6-31.9,14S82.1,123.7,82.1,139s4.7,27.2,14.4,36.5
			s20.3,14,32.1,14s22.3-4.5,32-13.6s14.2-21,14.2-36.6s-4.7-27.7-14.4-37S140.1,88.4,128.3,88.4L128.3,88.4z"/>
		<path class="st1" d="M129.1,251.3c-30.1,0-56.1-11-77.1-32.8s-31.7-48-31.7-78.1c-0.1-15.9,2.9-31.6,8.9-46.3
			c5.9-14.3,14-26.5,23.9-36.3c9.9-9.7,21.5-17.5,34.3-22.9c12.6-5.5,26.3-8.3,40.1-8.4c29.3,0,55.1,10.7,76.7,31.9
			s32.5,47.8,32.5,79.2s-10.4,58.3-31,80.4S159.3,251.3,129.1,251.3z M127.4,32.9c-12.9,0-25.7,2.7-37.6,7.8
			c-12,5.2-23,12.5-32.4,21.7C48.2,71.5,40.6,83,35,96.5c-5.7,13.9-8.6,28.8-8.4,43.9c0,28.8,9.8,52.9,30,73.7s43.9,30.9,72.6,30.9
			s52.2-10.3,71.8-31.3s29.3-46,29.3-76s-10-54.4-30.6-74.6S155.4,32.9,127.4,32.9L127.4,32.9z M128.6,200c-14.5,0-27.7-5.7-39.4-17
			s-17.6-26.1-17.6-44.1s5.9-32.8,17.5-44.1s24.8-17,39.3-17s27.8,5.6,39.4,16.8s17.6,26.2,17.6,44.6s-5.9,33.3-17.5,44.3
			S143,200,128.6,200z M128.3,84.2c-13,0-24.4,5-34.9,15.2S77.9,122.5,77.9,139s5.1,29.4,15.7,39.6s22,15.2,35,15.2
			s24.4-4.8,34.9-14.8s15.5-22.9,15.5-39.7s-5.1-29.9-15.7-40S141.2,84.2,128.3,84.2L128.3,84.2z"/>
		<path id="SVGID-8" class="st25" d="M385.1,255c-7.4,0-14.8-4.7-23.4-14.7l-50.7-57.9v36.9c0.1,3.7-0.1,7.4-0.5,11.1
			c-0.6,3.5-1.8,6.9-3.5,10c-4.1,7.9-13.6,11.7-29.1,11.7c-17,0-27.3-5.4-30.7-16c-1.4-4-2.1-9.6-2.1-17.2v-161
			c-0.1-3.7,0.1-7.3,0.5-11c0.6-3.6,1.8-7,3.6-10.1C253,28.9,262.5,25,278,25c16.9,0,27.4,5.3,31,15.6l0.1,0.4
			c1.2,4,1.8,9.6,1.8,17.1v35.9c20.5-23.1,37.5-42.6,50.7-58.1c8.3-9.7,15.9-14.4,23.3-14.4c6.9,0,14.7,3.9,23.9,11.8
			c9.5,8.2,14.1,15.7,14.1,23c0,6.8-3.4,14.1-10.5,22.3c-11.3,13.1-29,31.2-52.6,53.8l-6,5.7c26.7,25.8,46.1,45.7,57.8,59.1
			c7.6,8.5,11.4,16.1,11.4,22.9c0,7.2-4.6,14.8-14.1,23C399.7,251.1,391.9,255,385.1,255z M296.1,143.1l76.7,87.5
			c8,9.4,11.9,9.6,12.3,9.6c1.4,0,5.6-0.8,14.1-8.2s9-11.1,9-11.8c0-1.4-0.8-5.4-7.7-13.2c-12.2-14.2-33.2-35.5-62.5-63.6l-5.5-5.3
			l17.1-16.3c23.3-22.3,40.7-40.1,51.6-52.8c6-7,6.9-11,6.9-12.7c0-0.7-0.4-4.4-9-11.8s-12.9-8.2-14.3-8.2c-0.7,0-4.5,0.4-12.1,9.3
			c-16,18.7-37.5,43.2-63.8,72.8l-12.9,14.5V58.1c0-7.2-0.6-10.9-1.1-12.8c-1.9-4.9-11.5-5.6-17-5.6c-10.4,0-15.1,2.1-16,3.8
			c-1,1.6-1.6,3.4-2,5.2c-0.3,3-0.4,6-0.4,9.1v161.1c0,7.7,0.8,10.9,1.3,12.2l0.1,0.4c1.5,4.8,9.9,5.8,16.7,5.8
			c10.4,0,15.1-2.1,16-3.8c0.9-1.6,1.6-3.3,2-5.1c0.3-3,0.4-6.1,0.4-9.1L296.1,143.1z"/>
		<path class="st1" d="M385.1,250.7c-6,0-12.5-4.2-20.2-13.3l-50.8-57.9c-0.8-0.9-2-1.4-3.2-1.4c-0.5,0-1,0.1-1.5,0.3
			c-1.7,0.6-2.8,2.2-2.7,4v36.9c0.1,3.5-0.1,7.1-0.5,10.6c-0.5,3-1.6,5.9-3.1,8.6c-3.3,6.4-11.6,9.5-25.4,9.5
			c-14.9,0-23.9-4.4-26.7-13.1c-1.3-3.6-1.9-8.9-1.9-15.9V57.8c-0.1-3.5,0.1-7,0.5-10.4c0.5-3.1,1.5-6,3.1-8.8
			c3.3-6.4,11.6-9.5,25.4-9.5c14.9,0,24,4.3,27,12.8l0.1,0.3c1,3.5,1.5,8.7,1.5,15.8V94c0,1.8,1.1,3.3,2.7,3.9
			c0.5,0.2,1,0.3,1.5,0.3c1.2,0,2.4-0.5,3.2-1.4c20.5-23.1,37.5-42.6,50.8-58.1c7.5-8.7,14-13,20.1-13c5.9,0,12.8,3.5,21.2,10.8
			s12.7,13.8,12.7,19.8c0,5.8-3.1,12.2-9.5,19.6c-11.2,12.9-28.8,31-52.4,53.5l-6,5.7c-1.7,1.6-1.7,4.3-0.1,6c0,0,0.1,0.1,0.1,0.1
			c26.6,25.6,45.9,45.5,57.5,58.8c7,7.8,10.3,14.4,10.3,20.2c0,5.9-4.1,12.4-12.7,19.8C397.8,247.1,390.7,250.7,385.1,250.7z
			 M369.6,233.3c7.9,9.2,12.7,11.1,15.4,11.1c4.1,0,9.8-3.1,16.9-9.2c8.7-7.5,10.5-12.3,10.5-15s-1.5-7.9-8.8-16
			c-12.3-14.2-33.4-35.7-62.7-63.8l-2.4-2.3l14-13.3c23.4-22.4,40.9-40.3,51.9-53.1c5.3-6.1,7.9-11.3,7.9-15.5
			c0-2.7-1.8-7.5-10.5-15c-8.8-7.6-14.2-9.2-17-9.2s-7.7,1.9-15.3,10.8c-16,18.7-37.5,43.2-63.8,72.7l-5.5,6.2V58.1
			c0-6.2-0.4-10.9-1.2-13.9c0-0.1-0.1-0.3-0.1-0.4c-2.2-5.5-9.2-8.3-20.9-8.3c-7.6,0-17.2,1.1-19.8,6.1c-1.2,2.1-2,4.3-2.4,6.6
			c-0.3,3.2-0.5,6.4-0.4,9.6v161.1c0,6.4,0.5,10.9,1.5,13.7l0.1,0.3c1.8,5.7,8.8,8.7,20.7,8.7c7.6,0,17.2-1.1,19.8-6.1
			c1.2-2,2-4.2,2.4-6.5c0.3-3.2,0.5-6.5,0.4-9.7v-64.9L369.6,233.3z"/>
		<path class="st0" d="M339.6,400.3c-13.5,1.7-25.7-1.3-36.1-8.9c-10.6-7.6-17.5-19.3-18.9-32.3c-1.1-8.7,0.3-17.5,3.9-25.4
			c3.6-7.9,9.2-14.8,16.2-19.9c1.5-1.1,3.2-2.2,4.8-3.1c-1.1-3.3-1.9-6.8-2.4-10.3c-1.9-15.4,1.8-30,10.9-43.4
			c9.7-14.3,22.3-22.4,37.4-24.3c4.8-0.6,9.6-0.4,14.4,0.5c3.6-2,7.6-3.2,11.7-3.7c7.2-0.9,14.4,0.9,20.3,5.2l0.4,0.3
			c7.2-6.1,16.1-10,25.5-11.1c5.3-0.7,10.8-0.4,16,1c3.2-1.6,6.7-2.6,10.3-3c7.3-1,14.7,0.9,20.6,5.3c0.9,0.7,1.8,1.4,2.6,2.2
			c4.8-7.1,12.5-11.8,21-12.9c3.6-0.5,7.3-0.3,10.9,0.5c4.8-2.6,10.1-4.3,15.5-4.9c6.2-0.8,12.6-0.1,18.5,2
			c5.7-3.6,12.1-5.8,18.8-6.6c9.5-1.4,19.2,0.8,27.2,6.1c2,1.3,3.8,2.8,5.5,4.5c8.7-10.6,21.2-17.4,34.8-18.9
			c12-1.5,22.6,0.8,31.5,6.7c0.6,0.4,1.1,0.8,1.7,1.2l1-3c6.6-18.2,20-21.7,25.4-22.4c7-0.9,14,0.9,19.8,5
			c6.2,4.3,10.2,11,11.2,18.5c0.2,1.9,0.2,3.8,0.1,5.7l5.4,5.8c8.5,9.2,13.4,19.1,14.7,29.5c1.6,12.2-2.1,24.5-10.4,33.7
			c-7.9,9.1-18.3,14.4-31,16l-17.2,2.1c-4.3,0.6-8.7,0.4-12.9-0.5c-4,1.9-8.4,3.1-12.8,3.7l-23.3,2.9c-9.1,1.1-17.3,0.3-24.5-2.3
			c-5.1,4.1-11.5,6.7-19.1,7.6l-16.7,2c-7.9,1.1-15.9-0.7-22.5-5L549,306c-5.2,6.6-12.8,10.9-21.1,11.9c-6.7,0.9-13.5-0.7-19.2-4.5
			c-5,5-11.6,8.3-18.6,9.1c-4.2,0.5-8.5,0.1-12.5-1.3c-3.6,1.5-7.4,2.5-11.2,3l-10.5,1.3c-3.7,0.5-7.5,0.3-11.1-0.5
			c-3.3,1.6-6.8,2.6-10.4,3.1l-9.4,1.2c-2.2,0.3-4.5,0.4-6.7,0.3c-1.2,5.7-4,10.9-8.2,15c-5.4,5.3-12.6,8.6-21.4,9.6l-0.5,0.1
			C376.9,390.4,353.1,398.6,339.6,400.3z"/>
		<path class="st1" d="M719.5,222.1l-5.4-5.9c-1-1-1.8-2.2-2.1-3.5c0-0.3,0-0.6,0-0.9c0.2-1.9,0.2-3.8,0-5.6c-0.6-5.3-3.5-10-7.8-13
			c-4.1-2.9-9.1-4.2-14.1-3.5c-5,0.6-14,3.6-18.9,17.1l-5.4,15.4c-2.3-3.8-5.5-7.1-9.2-9.6c-7.2-4.9-16-6.7-26.1-5.5
			c-13.2,1.6-24.1,8.2-32.3,19.5c-1.3,1.8-2.4,3.6-3.5,5.5c-2.1-4.8-5.5-8.9-9.9-11.8c-6.4-4.3-14.2-6-21.8-4.9
			c-6.9,0.8-13.4,3.5-18.9,7.8c-5.6-3-12-4.1-18.3-3.2c-4.6,0.5-9.1,1.9-13.1,4.2c-0.7,0.4-1.5,0.9-2.2,1.5
			c-3.5-1.4-7.3-1.8-11.1-1.3c-4.5,0.5-15.3,3.4-19.4,18.5l-1.9,7.1c0-0.9,0-1.9-0.1-2.8c-0.6-5.4-3.5-10.3-7.9-13.5
			c-4.3-3.2-9.6-4.6-14.9-3.9c-3.7,0.4-7.2,1.8-10.4,3.8c-5.1-1.9-10.6-2.5-15.9-1.7c-10.3,1.3-19.3,6.2-26.7,14.5
			c-1.3-2-2.9-3.7-4.8-5.1c-4.2-3.1-9.4-4.4-14.6-3.7c-4.1,0.5-8,2-11.4,4.4c-4.7-1.5-9.8-1.9-14.7-1.2
			c-12.7,1.6-23.4,8.6-31.8,20.9c-8,11.8-11.3,24.6-9.6,38c0.6,5.3,2.3,10.4,5,15.1c-3.8,1.4-7.3,3.3-10.6,5.7
			c-5.9,4.3-10.7,10.1-13.7,16.7c-3,6.6-4.2,14-3.3,21.2c1.2,10.8,6.9,20.5,15.7,26.8c8.8,6.3,19,8.8,30.5,7.4
			c14.7-1.8,34-10.9,43.1-44.1l0.3-1.2l5.7-0.7c7-0.9,12.6-3.3,16.8-7.4c4.9-4.8,7.2-11.5,6.2-18.3c0-0.1,0-0.3-0.1-0.4
			c4.3,1.3,8.9,1.7,13.4,1.1l9.4-1.1c3.7-0.5,7.3-1.8,10.4-3.7c3.6,1.2,7.4,1.6,11.1,1.1l10.5-1.3c4.2-0.5,8.2-1.8,11.9-3.8
			c3.6,1.9,7.8,2.6,11.8,2.2c5-0.6,13.2-3.2,18.6-13.2c1.3,1.9,2.9,3.5,4.7,4.8c4.2,3.1,9.4,4.4,14.5,3.7c5.6-0.7,15.3-3.9,20.4-17
			c1.6,2.7,3.9,5,6.5,6.7c5.1,3.3,11.2,4.6,17.2,3.7l16.7-2c7-0.9,12.6-3.3,16.7-7.4c0.6-0.6,1.1-1.2,1.7-1.8
			c6.9,3.7,15.4,5,25.2,3.8l23.3-2.9c4.6-0.5,8.9-2,12.9-4.4c4.1,1.4,8.6,1.8,12.9,1.2l17.2-2.1c10.7-1.3,19.4-5.8,26-13.3
			c6.7-7.5,9.8-17.6,8.5-27.6C731,238.4,726.8,230,719.5,222.1z"/>
		<path class="st0" d="M377.6,317.5l9.9-1.2c7-0.9,10.7,1.1,11.3,6c0.5,3.1-0.5,6.2-2.7,8.3c-2.2,2.2-5.5,3.6-9.9,4.1l-13.7,1.6
			l-2.4,8.9c-5.9,21.6-16.9,33.4-33,35.4c-8.5,1-15.8-0.7-22.1-5.2c-6.2-4.3-10.1-11.1-10.8-18.6c-0.6-5.1,0.2-10.2,2.3-14.8
			c2.2-4.8,5.6-8.9,9.9-12c5.4-3.9,13-6.5,22.9-7.7L357,320l1.8-6.7c-2.7,2.3-5.9,3.8-9.4,4.3c-5.4,0.8-10.9-0.7-15-4.4
			c-4.1-3.6-6.6-8.7-7.4-15.2c-1.3-10.5,1.3-20.5,7.6-29.8s14.2-14.6,23.4-15.7c6.7-0.8,12.1,0.8,15.9,4.7c2-4.7,5.4-7.3,10.1-7.9
			c2.2-0.3,4.4,0.2,6.2,1.5c1.7,1.2,2.9,3.1,3.1,5.2c0.2,1.7-0.2,4.4-1.2,8.1L377.6,317.5z M351.8,338.8l-14.3,1.7
			c-4.9,0.6-8.6,2.1-11.1,4.5c-2.5,2.4-3.6,5.9-3,9.3c0.3,2.5,1.6,4.8,3.6,6.2c2.1,1.6,4.7,2.2,7.2,1.9c4-0.5,7.5-2.7,9.8-6
			C346.7,353.1,349.3,347.2,351.8,338.8z M363.9,294.1l4.7-17.1c0.3-1.1,0.5-2.3,0.4-3.5c-0.2-1.6-1.2-3.1-2.7-3.8
			c-1.7-1-3.7-1.3-5.7-1c-4,0.5-7.4,3.2-10.5,8.2c-2.9,4.4-4.2,9.7-3.6,15c0.7,5.8,3.7,8.3,9.1,7.7
			C360.3,298.9,363.1,297.1,363.9,294.1L363.9,294.1z"/>
		<path class="st0" d="M456.3,287.3l9-1.1c6.9-0.9,10.7,1.1,11.2,6c0.5,3.1-0.5,6.2-2.7,8.3c-2.2,2.2-5.5,3.6-9.9,4.1l-10.5,1.3
			c-4.7,0.6-8.2-0.9-10.3-4.3c-3.7,4.2-7.4,6.5-11.3,7l-9.3,1.1c-5.6,0.9-11.3-0.8-15.4-4.7c-4.2-3.9-6.8-9.3-7.6-16.2
			c-1.3-10.5,1.1-20.4,7.4-29.6c6.3-9.2,14-14.4,23.1-15.5c7-0.9,12.4,1,16.3,5.4c2.2-4.4,5.6-6.9,10-7.5c2.2-0.3,4.5,0.2,6.3,1.6
			c1.8,1.3,2.9,3.2,3.1,5.4c0.2,1.9-0.1,3.8-0.6,5.7l-0.6,2.3L456.3,287.3z M426.5,291.4l2.1-0.3c4.5-0.6,7.3-2.8,8.3-6.6l4-15
			c0.5-1.6,0.7-3.2,0.6-4.8c-0.2-1.6-1.2-2.9-2.7-3.6c-1.6-0.9-3.6-1.3-5.4-1c-4,0.5-7.6,3.3-10.8,8.4c-3.2,5.1-4.5,10.2-3.9,15.2
			C419.3,289.4,421.9,291.9,426.5,291.4L426.5,291.4z"/>
		<path class="st0" d="M577.8,272.4l9.8-1.2c6.9-0.8,10.7,1.2,11.3,6.1c0.5,3-0.5,6.1-2.7,8.3c-2.2,2.2-5.5,3.5-9.8,4l-16.7,2
			c-3.2,0.5-6.4-0.1-9.2-1.8c-2.5-1.6-4-4.2-4.3-7.2c-0.3-2.1,0.1-5.1,1.2-9l5.4-19.8c0.3-1,0.4-2.1,0.3-3.1
			c-0.4-3.6-2.5-5.1-6.1-4.7c-2.8,0.3-5.4,1.9-7.8,4.8c-2.6,3.2-4.4,6.9-5.3,10.9l-6.4,23.8c-2.1,7.7-6,11.9-11.8,12.6
			c-2.1,0.3-4.3-0.3-6-1.5c-1.7-1.2-2.8-3-3-5c-0.2-1.9,0-3.9,0.5-5.8l0.6-2.3l6.5-24.1c0.5-1.6,0.7-3.3,0.7-4.9
			c-0.2-1.3-0.9-2.4-2-3c-1.2-0.8-2.6-1.1-4-0.9c-5.9,0.7-10.1,5.6-12.5,14.6l-6.7,24.8c-2.1,7.8-6,12-11.7,12.7
			c-2.1,0.3-4.3-0.2-6.1-1.5c-1.7-1.1-2.8-3-3.1-5c-0.2-1.9,0-3.9,0.5-5.7l0.6-2.3l11.5-42.3c1.6-5.9,4.7-9.2,9.3-9.8
			c4.8-0.6,8,1.3,9.7,5.7c2.4-2.8,5.2-5.3,8.3-7.4c2.6-1.5,5.4-2.3,8.4-2.6c7.3-0.9,13.2,1.6,17.7,7.6c5.3-7.2,11.9-11.2,19.6-12.2
			c4.8-0.7,9.7,0.3,13.8,3c3.7,2.3,6.2,6.2,6.7,10.6c0.3,3,0.1,6-0.8,8.9L577.8,272.4z"/>
		<path class="st0" d="M620.1,261c0.5,4.1,3.9,5.8,10.1,5l24.4-3c6.9-0.8,10.7,1.2,11.3,6.1c0.5,3-0.5,6.1-2.7,8.3
			c-2.2,2.2-5.5,3.5-9.9,4l-23.3,2.9c-8.7,1.1-15.5-0.3-20.6-4c-5-3.7-8.1-9.7-9.1-17.9c-1.4-10.2,1.3-20.5,7.4-28.7
			c6.2-8.6,14.3-13.4,24.2-14.6c7.2-0.9,13.2,0.3,18,3.5c4.8,3.2,7.9,8.3,8.4,14.1c0.9,7.4-1.4,13.3-7,17.6c-3.1,2.5-8,4.1-14.7,4.9
			L620.1,261z M622.2,245.5l9-1.1c5.9-0.7,8.6-2.4,8.1-4.9c-0.5-2.9-2.6-4.1-6.2-3.7C628.1,236.5,624.5,239.7,622.2,245.5z"/>
		<path class="st0" d="M692.8,235.5l-1.1,4c-1.7,5.7-4.8,8.9-9.3,9.4c-2.2,0.3-4.5-0.3-6.3-1.6c-1.8-1.1-3-3-3.3-5.1
			c-0.2-1.9,0.3-4.6,1.5-7.9l8.2-23.6c2-5.7,5.1-8.7,9.1-9.2c2-0.3,4.1,0.2,5.8,1.4c1.6,1.1,2.7,2.8,2.9,4.7c0,1.1,0,2.2-0.1,3.3
			c-0.1,1.1-0.1,2.2,0.1,3.3c0.4,3.5,2.1,6.8,5.2,10.1l5.5,5.9c5.6,6.1,8.8,12.2,9.5,18.4c0.9,6.6-1.1,13.3-5.6,18.3
			c-4.6,5.3-10.7,8.4-18.4,9.3l-17.2,2.1c-7,0.9-10.8-1.1-11.3-6c-0.5-3.1,0.5-6.2,2.8-8.3c2.2-2.2,5.5-3.6,9.8-4.1l9.5-1.2
			c7.6-0.9,11.1-4.2,10.4-9.7c-0.4-2.5-1.5-4.9-3-6.9L692.8,235.5z"/>
	</g>
</g>
</svg>
